<svg viewBox="0 0 60 60" xmlns="http://www.w3.org/2000/svg" fill-rule="evenodd" clip-rule="evenodd" stroke-linejoin="round" stroke-miterlimit="2">
  <path d="M39.488 43.756a1.952 1.952 0 11-.001 3.903 1.952 1.952 0 01.001-3.903z" fill="#5d4037"/>
  <path d="M37.726 52.336c-1.968 0-3.504-.48-4.608-1.44-1.104-.96-1.632-2.4-1.632-4.32 0-1.872.768-3.456 2.304-4.656 1.536-1.152 3.744-1.872 6.672-2.064l3.936-.288V35.68c0-1.584-.336-2.784-1.008-3.504-.672-.72-1.776-1.104-3.264-1.104-2.64 0-3.984.72-3.984 2.16 0 .816.48 1.44 1.44 1.776 0 1.536-.912 2.304-2.736 2.304-.816 0-1.488-.24-2.016-.768s-.768-1.2-.768-2.016c0-1.632.72-2.928 2.208-3.936 1.44-.96 3.408-1.44 6-1.44 2.544 0 4.512.576 6 1.728 1.488 1.152 2.208 2.736 2.208 4.8v13.392c.72.528 1.872.96 3.36 1.296L51.646 52h-6.624l-.48-2.16c-1.776 1.68-4.08 2.496-6.816 2.496zm-2.016-5.904c0 2.64 1.056 3.936 3.216 3.936 1.68 0 3.504-.912 5.472-2.784v-6.048l-3.84.336c-1.488.144-2.688.576-3.552 1.392-.864.816-1.296 1.872-1.296 3.168z" fill="#5d4037" fill-rule="nonzero"/>
  <path d="M17.488 38.756a1.952 1.952 0 11-.001 3.903 1.952 1.952 0 01.001-3.903z" fill="#5d4037"/>
  <path d="M25.6 1l3.42 44.16c0 .42-.24.66-.72.72l-6.12.24c-.42 0-.66-.18-.66-.54l-.42-9.66-6.66.24-2.16 9c-.06.3-.18.48-.24.6-.12.06-.3.12-.54.18l-6.06.18c-.42 0-.6-.18-.6-.54l12.9-44.34c.12-.42.36-.66.78-.66l6.42-.24c.42 0 .66.24.66.66zm-5.52 12.12L16 29.92l4.86-.18-.78-16.62z" fill="#5d4037" fill-rule="nonzero"/>
  <path d="M26.093 50.007c3.308.495 5.768 2.387 5.492 4.225-.275 1.838-3.724 5.079-7.032 4.584-3.309-.496-5.225-4.54-4.95-6.378.276-1.838 3.181-2.927 6.49-2.431z" fill="#5d4037"/>
</svg>

